<svg xmlns="http://www.w3.org/2000/svg" xmlns:xlink="http://www.w3.org/1999/xlink" version="1.1" x="0px" y="0px" viewBox="0 0 100 125" enable-background="new 0 0 100 100" xml:space="preserve"><g><g><path d="M64.7,20.7l-9.8,23.6c-0.8,2,0.1,3.5,2.1,3.5h12.1L34.8,79.3l10.3-24.9l4.1-3.3H30.8L64.7,20.7 M69.2,47.9L69.2,47.9     M64.7,17.7c-0.7,0-1.4,0.3-2,0.8L28.8,48.8c-0.9,0.8-1.2,2.1-0.8,3.3s1.6,1.9,2.8,1.9H42l-10,24.1c-0.5,1.3-0.1,2.8,1,3.6    c0.5,0.4,1.1,0.5,1.7,0.5c0.7,0,1.5-0.3,2-0.8l34.3-31.3c0.6-0.5,1-1.4,1-2.3c0-1.7-1.3-3-3-3h0H58l9.5-23c0.5-1.3,0.1-2.8-1-3.6    C65.9,17.9,65.3,17.7,64.7,17.7L64.7,17.7z M64.7,23.7L64.7,23.7L64.7,23.7L64.7,23.7z M57.7,45.7C57.7,45.7,57.7,45.7,57.7,45.7    C57.7,45.7,57.7,45.7,57.7,45.7L57.7,45.7z"/></g></g></svg>
